<svg xmlns="http://www.w3.org/2000/svg" data-name="Layer 1" viewBox="0 0 64 64" id="free-shipping"><path d="M13.8 30.914c.344-.3.123-2.3.182-2.723h2.149c.347 0 .589-.148.593-.487s-.241-.5-.593-.492H13.982V25.564h2.571a.513.513 0 100-1.006H13.477a.7.7 0 00-.8.8v4.957A.667.667 0 0013.8 30.914zM18.785 31.109c.45-.009.655-.319.651-.8v-2.07h.457c1.4-.08 1.713 2.022 2.6 2.763a.694.694 0 00.917-.167c.148-.263.076-.348-.058-.7a4.524 4.524 0 00-1.615-2.046 1.759 1.759 0 00.629-3.345c-.776-.342-2.578-.129-3.437-.188-.566 0-.8.234-.8.8v4.957C18.129 30.781 18.32 31.105 18.785 31.109zm.651-5.572c.744.057 2.117-.21 2.482.4.73 1.628-1.512 1.359-2.482 1.37zM24.612 30.2c0 .568.23.8.8.8h3.546a.529.529 0 00.464-.895c-.133-.283-3.195-.088-3.5-.142V28.131h2.708c.355 0 .587-.161.593-.5s-.244-.491-.593-.488H25.917V25.564h2.94a.513.513 0 100-1.006H25.412c-.319 0-.579.062-.716.34C24.532 24.808 24.641 30.049 24.612 30.2zM30.615 30.2c0 .568.23.8.8.8h3.546a.529.529 0 00.464-.895c-.133-.283-3.195-.088-3.5-.142V28.131h2.707c.356 0 .588-.161.594-.5s-.244-.491-.594-.488H31.92V25.564h2.94a.513.513 0 100-1.006H31.415c-.319 0-.579.062-.716.34C30.535 24.808 30.644 30.049 30.615 30.2z"></path><path d="M58.79,35.886l-7-9A1,1,0,0,0,51,26.5H43V22.022a1,1,0,0,0-1-1H10a1,1,0,0,0-1,1V45.5a1,1,0,0,0,1,1H22.55a3.984,3.984,0,1,0,6.911,0H45.55a3.984,3.984,0,1,0,6.911,0H58a1,1,0,0,0,1-1v-9A1,1,0,0,0,58.79,35.886ZM26,50.468a1.968,1.968,0,1,1,0-3.936A1.968,1.968,0,1,1,26,50.468Zm23,0a1.968,1.968,0,1,1,0-3.936A1.968,1.968,0,1,1,49,50.468ZM41,23.022V40H11V23.022ZM11,42H41v2.5H11Zm46,2.5H43v-16h7.511L57,36.843Z"></path></svg>