<svg xmlns="http://www.w3.org/2000/svg" enable-background="new 0 0 96 96" viewBox="0 0 96 96" id="return-on-investment"><path fill-rule="evenodd" d="M19.967,49.646c0,13.795,11.224,25.017,25.017,25.017c13.794,0,25.017-11.222,25.017-25.017c0-13.794-11.223-25.016-25.017-25.016C31.191,24.63,19.967,35.852,19.967,49.646L19.967,49.646z M93.5,56.821c-0.009,0.338-0.156,0.672-0.434,0.908l-8.708,7.429c-0.617,0.525-1.608,0.295-1.929-0.451c0-0.002-4.593-10.692-4.593-10.692c-0.271-0.624,0.02-1.346,0.641-1.614c0.622-0.269,1.347,0.019,1.618,0.643l3.31,7.708c3.656-12.627,0.972-26.061-7.375-36.338C69.849,16.808,61.117,11.75,51.447,10.17c-0.671-0.109-1.125-0.741-1.016-1.412c0.113-0.67,0.74-1.123,1.416-1.015c10.261,1.676,19.526,7.048,26.088,15.122c8.663,10.656,11.579,24.512,8.091,37.639l5.446-4.646c0.518-0.439,1.293-0.379,1.737,0.137c0.188,0.222,0.284,0.492,0.291,0.762V56.821L93.5,56.821z M44.984,22.17c15.151,0,27.474,12.326,27.474,27.476c0,15.151-12.324,27.474-27.474,27.474S17.51,64.796,17.51,49.646C17.51,34.496,29.834,22.17,44.984,22.17L44.984,22.17z M19.755,18.601c-13.404,10.89-18.303,29.05-12.2,45.191c0.241,0.634-0.084,1.343-0.715,1.583c-0.143,0.055-0.291,0.08-0.434,0.08c-0.498,0-0.967-0.303-1.155-0.794c-6.473-17.132-1.268-36.409,12.95-47.967c4.612-3.75,9.98-6.475,15.673-8.021l-6.759-2.395c-0.636-0.227-0.972-0.93-0.745-1.569c0.227-0.642,0.932-0.976,1.569-0.748l10.79,3.829c0.37,0.131,0.651,0.428,0.764,0.803c0.114,0.373,0.044,0.778-0.187,1.091L32.34,19.01c-0.242,0.324-0.612,0.494-0.982,0.494c-0.261,0-0.518-0.08-0.735-0.245c-0.548-0.405-0.656-1.177-0.252-1.72l5.032-6.742C29.711,12.201,24.338,14.873,19.755,18.601L19.755,18.601z M75.947,74.987c0.434-0.524,1.209-0.601,1.732-0.171c0.528,0.43,0.602,1.205,0.173,1.729c-1.811,2.208-3.858,4.243-6.088,6.054c-7.627,6.201-16.996,9.513-26.719,9.513c-1.268,0-2.545-0.057-3.828-0.171c-9.97-0.89-19.137-5.188-26.152-12.174l1.297,7.03c0.123,0.667-0.316,1.308-0.982,1.431c-0.079,0.016-0.153,0.021-0.227,0.021c-0.582,0-1.095-0.414-1.204-1.006l-2.082-11.257c-0.069-0.384,0.044-0.779,0.311-1.065c0.266-0.285,0.656-0.425,1.041-0.38l11.559,1.367c0.676,0.078,1.159,0.69,1.075,1.365c-0.079,0.673-0.696,1.164-1.361,1.076l-8.357-0.987c14.381,15.036,37.731,16.616,54.08,3.329C72.316,78.984,74.245,77.065,75.947,74.987L75.947,74.987z M34.945,57.36c-0.163-0.658,0.237-1.326,0.898-1.489c0.656-0.165,1.322,0.235,1.49,0.894c0.923,3.702,4.692,5.3,7.982,5.199c2.077-0.05,4.82-0.714,6.305-2.431c0.789-0.912,1.095-1.986,0.937-3.283c-0.36-2.976-2.748-4.667-7.745-5.488c-5.762-0.945-8.787-3.481-8.984-7.539c-0.187-3.869,2.546-7.118,6.793-8.082c0.365-0.084,0.745-0.141,1.135-0.185V32.2c0-0.679,0.547-1.23,1.228-1.23c0.676,0,1.229,0.551,1.229,1.23v2.744c3.207,0.341,6.443,2.096,8.022,5.851c0.261,0.626-0.03,1.346-0.656,1.609c-0.632,0.264-1.347-0.031-1.613-0.658c-1.633-3.893-5.703-4.909-8.801-4.209c-2.348,0.533-5.037,2.31-4.879,5.564c0.133,2.778,2.398,4.49,6.922,5.231c2.24,0.368,9.048,1.486,9.793,7.62c0.242,1.969-0.286,3.764-1.519,5.189c-1.564,1.806-4.238,2.976-7.267,3.224v2.726c0,0.679-0.552,1.23-1.229,1.23c-0.681,0-1.228-0.551-1.228-1.23v-2.745C39.928,63.941,36.04,61.757,34.945,57.36z" clip-rule="evenodd"></path></svg>